# xmcd
#
# Track frame offsets:
#	150
#	16336
#	33336
#	52059
#	78555
#	105080
#	134019
#
# Disc length: 2167 seconds
#
# Revision: 0
# Processed by: cddbd v1.5.2PL0 Copyright (c) Steve Scherf et al.
# Submitted via: dBpowerAMP V4.0
#
DISCID=53087507
DTITLE=Crispy - Licky Licky [CDS]
DYEAR=1999
DGENRE=Pop
TTITLE0=Licky Licky (Radio Version - Kaj M.)
TTITLE1=Licky Licky (Pasta People - Radio Edit)
TTITLE2=Licky Licky (Main Mix - P. Mark)
TTITLE3=Licky Licky (Dancehall - Kaj M.)
TTITLE4=Licky Licky (Pasta People - Dub Version)
TTITLE5=Licky Licky (Pasta People - Kiwi Dreamix)
TTITLE6=Licky Licky (DJ'NME Klub - Mix - R. Veiler)
EXTD=
EXTT0=
EXTT1=
EXTT2=
EXTT3=
EXTT4=
EXTT5=
EXTT6=
PLAYORDER=
